<svg xmlns="http://www.w3.org/2000/svg" viewBox="0 0 73.99 114.94"><defs><style>.cls-1{fill:#60c73c;}.cls-2{fill:#fcfdfb;}.cls-3{fill:#fefefe;}</style></defs><g id="Слой_2" data-name="Слой 2"><g id="Слой_1-2" data-name="Слой 1"><path class="cls-1" d="M36.79,114.94a1.79,1.79,0,0,1-.4-1.28c.14-5-1.83-9.49-4-13.87-4.29-8.75-9.66-16.87-14.93-25-3.81-5.89-7.36-11.94-11.41-17.67A31.86,31.86,0,0,1,.23,41.9C-.86,30.74,1.88,20.46,9.76,12.14,19.92,1.4,32.47-2.41,46.7,1.49S69.69,15,73,29.35a34,34,0,0,1-5.53,28.2c-4.29,6.08-8,12.47-11.89,18.8A224.68,224.68,0,0,0,41.11,103a68.83,68.83,0,0,0-3.76,10.69C37.24,114.16,37.28,114.67,36.79,114.94Zm-3-73.7c4.65,0,9.31,0,14,0a8,8,0,0,0,7.85-6.09c.14-.73.7-1.88-1-1.87-9.57,0-19.14,0-28.7,0A7.9,7.9,0,0,0,18.4,40c-.2,1.14.17,1.28,1.14,1.27C24.29,41.22,29.05,41.24,33.81,41.24ZM33.93,29V29c4.81,0,9.62.08,14.43,0a7.66,7.66,0,0,0,7.28-6.14c.11-.7.64-1.8-1-1.8-9.46,0-18.93,0-28.4.05a7.94,7.94,0,0,0-7.86,6.68c-.19,1.07.05,1.31,1.09,1.31C24.31,29,29.12,29,33.93,29Zm.15,24.23c4.86,0,9.72,0,14.58,0a7.76,7.76,0,0,0,7-6.22c.15-1.12-.08-1.63-1.41-1.6-3.88.09-7.77,0-11.66,0-5.68,0-11.36,0-17,.1A7.66,7.66,0,0,0,18.43,52c-.18,1,0,1.28,1.07,1.27C24.36,53.24,29.22,53.27,34.08,53.27Z"/><path class="cls-2" d="M33.81,41.24c-4.76,0-9.52,0-14.27,0-1,0-1.34-.13-1.14-1.27a7.9,7.9,0,0,1,7.51-6.67c9.56-.06,19.13,0,28.7,0,1.71,0,1.15,1.14,1,1.87a8,8,0,0,1-7.85,6.09C43.12,41.26,38.46,41.24,33.81,41.24Z"/><path class="cls-2" d="M33.93,29c-4.81,0-9.62,0-14.43,0-1,0-1.28-.24-1.09-1.31a7.94,7.94,0,0,1,7.86-6.68c9.47-.09,18.94,0,28.4-.05,1.61,0,1.08,1.1,1,1.8A7.66,7.66,0,0,1,48.36,29c-4.81.11-9.62,0-14.43,0Z"/><path class="cls-3" d="M34.08,53.27c-4.86,0-9.72,0-14.58,0-1,0-1.25-.22-1.07-1.27a7.66,7.66,0,0,1,7.17-6.45c5.67-.15,11.35-.08,17-.1,3.89,0,7.78.06,11.66,0,1.33,0,1.56.48,1.41,1.6a7.76,7.76,0,0,1-7,6.22C43.8,53.29,38.94,53.27,34.08,53.27Z"/></g></g></svg>